<svg id="Layer_5" height="512" viewBox="0 0 64 64" width="512" xmlns="http://www.w3.org/2000/svg"><path d="M56 9c3.86 0 7-3.14 7-7V1H1v1c0 3.86 3.14 7 7 7h2v6c-4.962 0-9 4.038-9 9s4.038 9 9 9h1v-2.618l-1.478-.739A4.537 4.537 0 017 25.562 4.568 4.568 0 0111.562 21h6.875A4.568 4.568 0 0123 25.562a4.538 4.538 0 01-2.522 4.081L19 30.382V33h1c4.962 0 9-4.038 9-9s-4.038-9-9-9V9h21v16h-1c-4.962 0-9 4.038-9 9 0 4.624 3.507 8.441 8 8.941V47h16v-4.059c4.493-.5 8-4.317 8-8.941 0-4.962-4.038-9-9-9h-1V9zM3.101 3H60.9A5.01 5.01 0 0156 7H8a5.008 5.008 0 01-4.899-4zM27 24a7.009 7.009 0 01-4.082 6.362 6.526 6.526 0 002.082-4.8A6.57 6.57 0 0018.438 19h-6.875A6.57 6.57 0 005 25.562c0 1.859.769 3.58 2.082 4.8A7.009 7.009 0 013 24c0-3.86 3.14-7 7-7h10c3.86 0 7 3.14 7 7zm-9-9h-6V9h6zm37 25v-5H39v5a5.024 5.024 0 01-2-4c0-2.757 2.243-5 5-5h10c2.757 0 5 2.243 5 5a5.025 5.025 0 01-2 4zm-10-3h4v2h-4zm8 8H41v-8h2v4h8v-4h2zm8-11a6.997 6.997 0 01-3.154 5.843A7.023 7.023 0 0059 36c0-3.86-3.14-7-7-7H42c-3.86 0-7 3.14-7 7 0 1.376.413 2.713 1.154 3.843A6.997 6.997 0 0133 34c0-3.86 3.14-7 7-7h14c3.86 0 7 3.14 7 7zm-10-9h-8V9h8z"/><path d="M57 51H33V41H17v10h-2.153l-2-12H1v24h56c3.309 0 6-2.691 6-6s-2.691-6-6-6zm-46 6c0-2.206 1.794-4 4-4s4 1.794 4 4-1.794 4-4 4-4-1.794-4-4zm8.46-4h5.081a5.965 5.965 0 00-.001 8h-5.08c.954-1.063 1.54-2.462 1.54-4s-.586-2.937-1.54-4zM25 57c0-2.206 1.794-4 4-4s4 1.794 4 4-1.794 4-4 4-4-1.794-4-4zm8.46-4h5.081a5.965 5.965 0 00-.001 8h-5.08c.954-1.063 1.54-2.462 1.54-4s-.586-2.937-1.54-4zM39 57c0-2.206 1.794-4 4-4s4 1.794 4 4-1.794 4-4 4-4-1.794-4-4zm8.46-4h5.081a5.965 5.965 0 00-.001 8h-5.08c.954-1.063 1.54-2.462 1.54-4s-.586-2.937-1.54-4zM23 43h4v2h-4zm-4 0h2v4h8v-4h2v8H19zM3 41h8.153l1.667 10H3zm0 12h7.54C9.586 54.063 9 55.462 9 57s.586 2.937 1.54 4H3zm54 8c-2.206 0-4-1.794-4-4s1.794-4 4-4 4 1.794 4 4-1.794 4-4 4zM45 15h2v2h-2zm0 4h2v2h-2zm0-8h2v2h-2z"/><path d="M56 56h2v2h-2zm-14 0h2v2h-2zm-14 0h2v2h-2zm-14 0h2v2h-2z"/></svg>