<svg version="1.1" id="Capa_1" xmlns="http://www.w3.org/2000/svg" x="0" y="0" viewBox="0 0 496 496" xml:space="preserve"><path d="M80 65.472V0H16v65.472C6.712 68.784 0 77.584 0 88c0 6.168 2.408 11.744 6.24 16C2.408 108.256 0 113.832 0 120c0 10.416 6.712 19.216 16 22.528V345.48C6.712 348.784 0 357.584 0 368c0 6.168 2.408 11.744 6.24 16C2.408 388.256 0 393.832 0 400c0 10.416 6.712 19.216 16 22.528v18.768L34.232 496H61.76L80 441.296v-18.768c9.288-3.312 16-12.112 16-22.528 0-6.168-2.408-11.744-6.24-16 3.84-4.256 6.24-9.832 6.24-16 0-10.416-6.712-19.216-16-22.528V142.528c9.288-3.312 16-12.112 16-22.528 0-6.168-2.408-11.744-6.24-16C93.6 99.744 96 94.168 96 88c0-10.416-6.712-19.216-16-22.528zM32 16h32v48H32V16zm32 422.704L50.232 480h-4.464L32 438.704V424h32v14.704zM72 392c4.416 0 8 3.584 8 8s-3.584 8-8 8H24c-4.416 0-8-3.584-8-8s3.584-8 8-8h16v-16H24c-4.416 0-8-3.584-8-8s3.584-8 8-8h48c4.416 0 8 3.584 8 8s-3.584 8-8 8H56v16h16zm-40-48V144h32v200H32zm40-216H24c-4.416 0-8-3.592-8-8s3.584-8 8-8h48c4.416 0 8 3.592 8 8 0 4.408-3.584 8-8 8zm0-32H24c-4.416 0-8-3.592-8-8s3.584-8 8-8h48c4.416 0 8 3.592 8 8s-3.584 8-8 8zM352 0h-64v96h-16v48h16v145.472c-9.288 3.312-16 12.112-16 22.528s6.712 19.216 16 22.528v34.952c-9.288 3.312-16 12.112-16 22.528v32c0 10.416 6.712 19.216 16 22.528V472c0 13.232 10.768 24 24 24h16c13.232 0 24-10.768 24-24v-25.472c9.288-3.312 16-12.112 16-22.528v-32c0-10.416-6.712-19.216-16-22.528V334.52c9.288-3.312 16-12.112 16-22.528 0-10.416-6.712-19.216-16-22.528V144h16V96h-16V0zm-48 16h32v80h-32V16zm32 456c0 4.416-3.584 8-8 8h-16c-4.416 0-8-3.584-8-8v-24h32v24zm16-48c0 4.416-3.584 8-8 8h-48c-4.416 0-8-3.584-8-8v-32c0-4.416 3.584-8 8-8h48c4.416 0 8 3.584 8 8v32zm-48-56v-32h32v32h-32zm40-48h-48c-4.416 0-8-3.584-8-8s3.584-8 8-8h48c4.416 0 8 3.584 8 8s-3.584 8-8 8zm-40-32V144h32v144h-32zm48-160h-64v-16h64v16zm144-80h-16V24c0-13.232-10.768-24-24-24h-16c-13.232 0-24 10.768-24 24v24h-16v48h9.472c-.896 2.512-1.472 5.184-1.472 8v72h8v144h-8v72c0 2.816.576 5.488 1.472 8H400v48h16v24c0 13.232 10.768 24 24 24h16c13.232 0 24-10.768 24-24v-24h16v-48h-9.472c.896-2.512 1.472-5.184 1.472-8v-72h-8V176h8v-72c0-2.816-.576-5.488-1.472-8H496V48zm-32 424c0 4.416-3.584 8-8 8h-16c-4.416 0-8-3.584-8-8v-24h32v24zm16-40h-64v-16h64v16zm-56-272v-56c0-4.408 3.584-8 8-8h32c4.416 0 8 3.592 8 8v56h-48zm40 16v144h-32V176h32zm8 160v56c0 4.416-3.584 8-8 8h-32c-4.416 0-8-3.584-8-8v-56h48zm8-256h-64V64h24V48h-8V24c0-4.408 3.584-8 8-8h16c4.416 0 8 3.592 8 8v24h-8v16h24v16zM216 24c0-13.232-10.768-24-24-24h-16c-13.232 0-24 10.768-24 24v24h-16v48h9.472c-.896 2.512-1.472 5.184-1.472 8v72h8v144h-8v72c0 2.816.576 5.488 1.472 8H136v48h18.24l16 48h27.528l16-48H232v-48h-9.472c.896-2.512 1.472-5.184 1.472-8v-72h-8V176h8v-72c0-2.816-.576-5.488-1.472-8H232V48h-16V24zm-48 0c0-4.408 3.584-8 8-8h16c4.416 0 8 3.592 8 8v24h-32V24zm18.232 456h-4.472l-10.672-32h25.808l-10.664 32zM216 432h-64v-16h64v16zm-56-272v-56c0-4.408 3.584-8 8-8h32c4.416 0 8 3.592 8 8v56h-48zm40 16v144h-32V176h32zm8 160v56c0 4.416-3.584 8-8 8h-32c-4.416 0-8-3.584-8-8v-56h48zm8-256h-64V64h64v16z"/></svg>