<svg version="1.1" id="Слой_1" xmlns="http://www.w3.org/2000/svg" x="0" y="0" viewBox="0 0 41 40" xml:space="preserve"><style>.st0{fill:#fff}</style><path class="st0" d="M40.6 17.7zm-.2 0c-.1-.6-.4-1.1-.8-1.4l-2.4-1.9.9-3c.2-.5.1-1.1-.2-1.6-.3-.5-.8-.8-1.3-1L33.5 8l-.4-3.1c-.1-.6-.4-1.1-.8-1.4-.5-.3-1-.5-1.6-.4l-3.1.6L25.9 1c-.5-.9-1.7-1.2-2.7-.8-.1 0-.1.1-.2.1l-2.7 1.9L17.7.4c-.4-.4-1-.5-1.5-.4-.6.1-1 .5-1.3 1l-1.6 2.7-3.1-.6c-.7-.1-1.2 0-1.7.4-.5.3-.8.8-.8 1.4L7.3 8l-3.4.8c-1 .5-1.5 1.5-1.2 2.5l.9 3-2.7 2.1c-.7.8-.8 2-.1 2.8l2 2.4-1.7 3c-.3 1 .1 2.2 1.1 2.6l2.9 1.3-.3 3.1c0 .6.1 1.1.5 1.6.4.6 1 .8 1.6.8l3.2.1 1 3c.2.5.6 1 1.1 1.2.5.2 1.1.2 1.6 0l2.9-1.2 2.4 2.5c.9.7 2.1.5 2.8-.2l2.2-2.3 2.9 1.2c.5.2 1.1.2 1.6 0s.9-.7 1.1-1.2l1-3 3.5-.1c1.1-.2 1.8-1.2 1.7-2.2l-.3-3.1 2.9-1.3c.5-.2.9-.7 1.1-1.2.2-.5.1-1.1-.2-1.6l-1.5-2.8 2-2.4c.4-.6.6-1.1.5-1.7zm-4.2 3.1c-.3.4-.4.9-.1 1.3l1.9 3.4-3.5 1.6c-.4.2-.7.7-.7 1.1l.3 3.9-3.9.1c-.5 0-.9.3-1.1.8l-1.3 3.7-3.6-1.5c-.4-.2-1-.1-1.3.3l-2.6 2.8-2.6-2.8c-.3-.3-.9-.5-1.3-.3l-3.6 1.5-1.2-3.7c-.2-.5-.6-.8-1.1-.8l-3.9-.1.4-3.8c0-.5-.2-.9-.7-1.1l-3.5-1.6 1.9-3.4c.2-.4.2-.9-.1-1.3L2.1 18l3-2.3c.4-.3.5-.8.4-1.2l-1.1-3.7 3.8-.9c.5-.1.8-.5.9-1l.5-3.8 3.8.7c.5.1 1-.1 1.2-.5l2-3.3 3.1 2c.4.3.9.3 1.3 0l3.2-2.2 2 3.3c.2.4.7.6 1.2.5l3.8-.7.5 3.8c.1.5.4.9.9 1l3.8.9-1.1 3.7c-.1.5 0 1 .4 1.2l3 2.3-2.5 3z"/><path class="st0" d="M20.5 10.2c-5.4 0-9.8 4.4-9.8 9.8s4.4 9.8 9.8 9.8 9.8-4.4 9.8-9.8-4.4-9.8-9.8-9.8zm0 17.8c-4.4 0-8-3.6-8-8s3.6-8 8-8 8 3.6 8 8-3.6 8-8 8z"/><path class="st0" d="M24.9 17.1c-.4-.4-1-.4-1.3 0L18.7 22l-1.5-1.5c-.2-.2-.4-.3-.7-.3-.2 0-.5.1-.7.3-.4.4-.4 1 0 1.3l2.1 2.1c.4.4 1 .4 1.3 0l5.5-5.5c.6-.4.6-1 .2-1.3z"/></svg>