<svg version="1.1" id="Слой_1" xmlns="http://www.w3.org/2000/svg" x="0" y="0" viewBox="0 0 41 40" xml:space="preserve"><path d="M.5 30.8c0 7 13.5 9.2 20 9.2s20-2.3 20-9.2c0-3-3-4.9-4.3-5.7-.2-.1-.4-.2-.5-.3l-.1-.1v-6.9c0-4.2-3.3-7.7-7.4-8h-.1l-2.7-4.2.1-.1c.4-.6.7-1.3.7-2 0-1.8-1.5-3.3-3.3-3.3-.8 0-1.6.3-2.2.8h-.2l-.2-.2c-.6-.5-1.4-.8-2.2-.8-1.8 0-3.3 1.5-3.3 3.3 0 .7.2 1.4.7 2l.1.1-2.7 4.2h-.1c-4.2.3-7.4 3.9-7.4 8v6.9l-.1.1c-.2.2-.3.3-.5.4-1.3.8-4.3 2.7-4.3 5.8zM22.9 1.9c.8 0 1.4.6 1.4 1.4s-.6 1.4-1.4 1.4c-.8 0-1.4-.6-1.4-1.4s.6-1.4 1.4-1.4zm-4.8 0c.8 0 1.4.6 1.4 1.4s-.6 1.4-1.4 1.4c-.8 0-1.4-.6-1.4-1.4s.6-1.4 1.4-1.4zm-.9 4.6h.2c1.1.3 2.2 0 3-.7l.2-.2.2.2c.8.7 1.9 1 3 .7h.2l2.1 3.2h-11l2.1-3.2zm-10 11.2c0-3.4 2.8-6.2 6.2-6.2h14.2c3.4 0 6.2 2.8 6.2 6.2v2.4h-.5c0-3.1-2.5-5.7-5.7-5.7H13.4c-3.1 0-5.7 2.5-5.7 5.7h-.5v-2.4zm-1.5 8.9c2.4-1.4 3.9-3.9 3.9-6.6 0-2.1 1.7-3.8 3.8-3.8h14.2c2.1 0 3.8 1.7 3.8 3.8 0 2.7 1.5 5.1 3.9 6.6 2.1 1.3 3.3 2.7 3.3 4.1 0 4.7-10.7 7.4-18.1 7.4S2.4 35.5 2.4 30.8c0-1.4 1.1-2.9 3.3-4.2z" fill="#fff"/></svg>