<svg version="1.1" id="Слой_1" xmlns="http://www.w3.org/2000/svg" x="0" y="0" viewBox="0 0 41 40" xml:space="preserve"><style>.st0{fill:#fff}</style><path class="st0" d="M18.9.6c-3.1 3.1-6.8 4.6-11.5 4.9-2.1.1-3.8 1.9-3.8 4v1.4c-.1 4.7-.2 10.6 1.8 15.9 1.1 2.9 2.7 5.4 4.8 7.5 2.4 2.4 5.6 4.3 9.5 5.6.1 0 .2.1.4.1.3.1.7.1 1 0 .1 0 .2-.1.4-.1 3.9-1.3 7-3.2 9.5-5.6 2.1-2.1 3.8-4.6 4.8-7.5 2-5.3 1.9-11.2 1.8-16V9.5c0-2.1-1.7-3.8-3.8-4-4.7-.3-8.4-1.8-11.5-4.9-.5-.4-1-.6-1.6-.6-.8 0-1.3.2-1.8.6zM20.8 2c1.7 1.7 3.6 2.9 5.7 3.8 2.1.9 4.4 1.4 7 1.5 1.1.1 2 1 2 2.1v1.3c.1 4.8.2 10.3-1.7 15.3-2.1 5.7-6.4 9.7-13.2 12H20c-6.8-2.4-11.1-6.3-13.2-12C5 21 5.1 15.6 5.2 10.8V9.5c0-1.1.9-2.1 2-2.1 2.6-.1 4.9-.6 7-1.5 2.1-.9 4-2.1 5.7-3.8.5-.3.7-.3.9-.1z"/><path class="st0" d="M20.5 10.2c-5.4 0-9.8 4.4-9.8 9.8s4.4 9.8 9.8 9.8 9.8-4.4 9.8-9.8-4.4-9.8-9.8-9.8zm0 17.8c-4.4 0-8-3.6-8-8s3.6-8 8-8 8 3.6 8 8-3.6 8-8 8z"/><path class="st0" d="M24.9 17c-.4-.4-1-.4-1.3 0l-4.9 4.9-1.5-1.5c-.2-.2-.4-.3-.7-.3s-.5.1-.7.3c-.4.4-.4 1 0 1.3l2.1 2.1c.4.4 1 .4 1.3 0l5.5-5.5c.6-.3.6-.9.2-1.3z"/></svg>