<svg height="496pt" viewBox="0 0 496 496" width="496pt" xmlns="http://www.w3.org/2000/svg"><path d="M56 416c-13.23 0-24 10.77-24 24s10.77 24 24 24 24-10.77 24-24-10.77-24-24-24zm0 32c-4.406 0-8-3.586-8-8s3.594-8 8-8 8 3.586 8 8-3.594 8-8 8zm0 0"/><path d="M496 58.91C496 26.434 469.574 0 437.09 0c-15.738 0-30.531 6.129-41.656 17.258l-28.497 28.484C360.704 42.098 353.658 40 346.238 40c-14.168 0-27.168 7.145-34.781 19.098l-49.656 78.023L276.68 152 256 172.688l-5.375-5.375c-4.715-4.72-10.984-7.313-17.656-7.313-13.77 0-24.969 11.2-24.969 24.969 0 6.574 2.664 13.008 7.313 17.656l5.375 5.375L200 228.688l-5.375-5.375c-4.715-4.72-10.984-7.313-17.656-7.313-13.77 0-24.969 11.2-24.969 24.969 0 6.574 2.664 13.008 7.313 17.656l5.375 5.375L144 284.688l-5.375-5.375c-4.715-4.72-10.984-7.313-17.656-7.313C107.199 272 96 283.2 96 296.969c0 6.574 2.664 13.008 7.313 17.656l5.375 5.375L88 340.688l-5.375-5.375C77.91 330.592 71.641 328 64.969 328 51.199 328 40 339.2 40 352.969c0 6.574 2.664 13.008 7.313 17.656L52.688 376l-38.75 38.742C4.953 423.734 0 435.687 0 448.398 0 474.648 21.352 496 47.602 496c12.71 0 24.664-4.953 33.656-13.945L120 443.312l5.375 5.375c4.715 4.72 10.984 7.313 17.656 7.313 13.77 0 24.969-11.2 24.969-24.969 0-6.574-2.664-13.008-7.312-17.656L155.313 408 176 387.312l5.375 5.375c4.715 4.72 10.984 7.313 17.656 7.313 13.77 0 24.969-11.2 24.969-24.969 0-6.574-2.664-13.008-7.312-17.656L211.313 352 232 331.312l5.375 5.375c4.715 4.72 10.984 7.313 17.656 7.313 13.77 0 24.969-11.2 24.969-24.969 0-6.574-2.664-13.008-7.312-17.656L267.313 296 288 275.312l5.375 5.375c4.715 4.72 10.984 7.313 17.656 7.313 13.77 0 24.969-11.2 24.969-24.969 0-6.574-2.664-13.008-7.312-17.656L323.313 240 344 219.312l14.879 14.88 78.023-49.657C448.863 176.938 456 163.938 456 149.77c0-7.418-2.098-14.465-5.754-20.708l28.496-28.488C489.872 89.45 496 74.648 496 58.91zM69.937 470.742C63.977 476.711 56.04 480 47.602 480 30.176 480 16 465.824 16 448.398c0-8.437 3.29-16.375 9.258-22.343L64 387.313 108.688 432zM143.031 440a8.905 8.905 0 01-6.344-2.625l-78.062-78.062A9.064 9.064 0 0156 352.969c0-4.946 4.023-8.969 8.969-8.969 2.398 0 4.648.93 6.344 2.625l78.062 78.063A9.064 9.064 0 01152 431.03c0 4.946-4.023 8.969-8.969 8.969zm.969-43.312L99.312 352 120 331.313 164.688 376zM199.031 384a8.905 8.905 0 01-6.344-2.625l-78.062-78.062a9.064 9.064 0 01-2.625-6.344c0-4.946 4.023-8.969 8.969-8.969 2.398 0 4.648.93 6.344 2.625l78.062 78.063A9.064 9.064 0 01208 375.03c0 4.946-4.023 8.969-8.969 8.969zm.969-43.312L155.312 296 176 275.313 220.688 320zM255.031 328a8.905 8.905 0 01-6.344-2.625l-78.062-78.062a9.064 9.064 0 01-2.625-6.344c0-4.946 4.023-8.969 8.969-8.969 2.398 0 4.648.93 6.344 2.625l78.062 78.063A9.064 9.064 0 01264 319.03c0 4.946-4.023 8.969-8.969 8.969zm.969-43.312L211.312 240 232 219.313 276.688 264zM311.031 272a8.905 8.905 0 01-6.344-2.625l-78.062-78.062a9.064 9.064 0 01-2.625-6.344c0-4.946 4.023-8.969 8.969-8.969 2.398 0 4.648.93 6.344 2.625l78.062 78.063A9.064 9.064 0 01320 263.03c0 4.946-4.023 8.969-8.969 8.969zm.969-43.312L267.312 184 288 163.313 332.688 208zm-29.809-93.81l34.762-54.612 98.781 98.78-54.613 34.763zm147.243 35.243L325.879 66.566C330.625 59.984 338.063 56 346.239 56c6.738 0 13.074 2.625 17.831 7.39l68.54 68.532c4.765 4.766 7.39 11.101 7.39 17.848 0 8.175-3.984 15.613-10.566 20.351zM440 116.688L379.312 56l27.43-27.434C414.848 20.465 425.632 16 437.09 16 460.754 16 480 35.246 480 58.91c0 11.465-4.465 22.242-12.566 30.348zm0 0"/><path d="M440 32c-13.23 0-24 10.77-24 24s10.77 24 24 24 24-10.77 24-24-10.77-24-24-24zm0 32c-4.406 0-8-3.586-8-8s3.594-8 8-8 8 3.586 8 8-3.594 8-8 8zm0 0"/></svg>