<svg version="1.1" id="Слой_1" xmlns="http://www.w3.org/2000/svg" x="0" y="0" viewBox="0 0 41 40" xml:space="preserve"><path d="M40.2 6.4c.3-.3.4-.8.3-1.2s-.5-.7-.9-.8L36.5 4 36 1c-.1-.4-.3-.8-.8-.9-.4-.1-.9 0-1.2.3l-5.7 5.7c-.2.2-.3.6-.3.9l.4 3.7-1.5 1.5-.2-.2c-3-2.6-6.7-3.8-10.3-3.8-4.1 0-8.2 1.6-11.2 4.6-3 3-4.6 7-4.6 11.2s1.6 8.2 4.6 11.2c3 3 7 4.6 11.2 4.6s8.2-1.6 11.2-4.6c5.8-5.8 6.2-15.3.8-21.6l-.2-.2 1.5-1.5 3.7.4c.3 0 .7-.1.9-.3l5.9-5.6zM26.3 34c-2.7 2.7-6.3 4.1-9.9 4.1S9.2 36.8 6.5 34C1 28.6 1 19.7 6.5 14.2c5.1-5.1 13.4-5.5 18.9-.8l.2.2-2.5 2.5-.2-.1c-4.2-3.3-10.1-3-13.9.8-2 2-3.1 4.6-3.1 7.4C5.9 27 7 29.6 9 31.6s4.6 3.1 7.4 3.1c2.8 0 5.4-1.1 7.4-3.1 3.8-3.8 4.1-9.7.8-13.9l-.1-.2L27 15l.2.2c4.5 5.4 4.2 13.7-.9 18.8zm-10.4-9.4c.4.4 1 .4 1.3 0l1.9-1.9.1.4c.4 1.1.1 2.4-.7 3.2-.6.6-1.3.9-2.2.9-.8 0-1.6-.3-2.2-.9-.6-.6-.9-1.3-.9-2.2 0-.8.3-1.6.9-2.2.8-.8 2.1-1.1 3.2-.7l.4.1-1.9 1.9c-.2.2-.3.4-.3.7s.2.5.4.7zm3.2-4.5l-.2-.1c-1.9-1.2-4.4-.9-6.1.7-.9.9-1.4 2.2-1.4 3.5 0 1.3.5 2.5 1.4 3.5.9.9 2.2 1.4 3.5 1.4s2.5-.5 3.5-1.4c1.6-1.6 1.9-4.1.7-6.1l-.1-.2 2.6-2.6.2.2c2.5 3.4 2.2 8.2-.8 11.2-1.6 1.6-3.8 2.5-6.1 2.5s-4.4-.9-6.1-2.5c-3.3-3.3-3.3-8.8 0-12.1 3-3 7.8-3.3 11.2-.8l.2.2-2.5 2.6zm14.2-9.5l-3.1-.4-.4-3.1 4.4-4.4.4 2.3c.1.5.4.9.9.9l2.3.3-4.5 4.4z" fill="#fff"/></svg>