<svg version="1.1" id="Слой_1" xmlns="http://www.w3.org/2000/svg" x="0" y="0" viewBox="0 0 64 55" xml:space="preserve"><style>.st0{fill:#fff}</style><path class="st0" d="M63.8 31.1c0-.3-.1-.5-.3-.7l-13-15c-.6-.6-1.5-1-2.4-1H33.8v20h1.9v-18h12.5c.4 0 .8.2 1 .4l2.5 2.5h-6.1c-1.2 0-2.2 1-2.2 2.2v10.9c0 1.2 1 2.2 2.2 2.2h16.3v9.9c0 .8-.7 1.5-1.5 1.5h-.7v-.2c-.3-2.2-1.4-4.1-3.2-5.4-1.8-1.3-3.9-1.9-6.1-1.6-3.6.5-6.4 3.4-6.9 6.9v.2H32v-.2c-.6-4.5-4.8-7.6-9.3-6.9-3.6.5-6.4 3.4-6.9 6.9v.2H13c-.8 0-1.5-.7-1.5-1.5V33.8H9.7v10.6c0 1.9 1.5 3.4 3.4 3.4h2.7v.2c.3 1.8 1.1 3.4 2.4 4.7l.4.4H0V55h51.6c4 0 7.5-3 8.1-7v-.2h.7c1.9 0 3.4-1.5 3.4-3.4V31.1zm-39.9 22c-3.5 0-6.3-2.8-6.3-6.3s2.8-6.3 6.3-6.3 6.3 2.8 6.3 6.3-2.9 6.3-6.3 6.3zm5.3 0l.4-.4c1.3-1.3 2.1-2.9 2.4-4.7v-.2h11.5v.2c.3 1.8 1.1 3.4 2.4 4.7l.4.4H29.2zm22.4 0c-3.5 0-6.3-2.8-6.3-6.3s2.8-6.3 6.3-6.3 6.3 2.8 6.3 6.3-2.8 6.3-6.3 6.3zm10.3-20.5H45.3V21.2h8.3l8.3 10.3v1.1z"/><path class="st0" d="M22.8 45.7H25v2.2h-2.2zm27.7 0h2.2v2.2h-2.2zM0 42.2h5.5v1.9H0zm2.4-4.8h3.1v1.9H2.4zm1.2-4.8h1.9v1.9H3.6zM15.4 0C6.9 0 0 6.9 0 15.4s6.9 15.4 15.4 15.4 15.4-6.9 15.4-15.4S23.9 0 15.4 0zm0 29C8 29 1.9 22.9 1.9 15.4 1.9 8 8 1.9 15.4 1.9 22.9 1.9 29 8 29 15.4S22.9 29 15.4 29z"/><path class="st0" d="M14.8 25.8c.4.4 1 .4 1.3 0 .8-.8 7.5-7.7 7.5-12.7 0-4.5-3.7-8.2-8.2-8.2S7.2 8.5 7.2 13c0 5.1 6.8 12 7.6 12.8zm.6-19.1c3.5 0 6.3 2.8 6.3 6.3 0 3.7-5.1 9.4-6.1 10.5l-.2.2-.2-.2c-1-1.1-6.1-6.8-6.1-10.5.1-3.4 2.9-6.3 6.3-6.3z"/><path class="st0" d="M15.4 9.7c-1.9 0-3.4 1.5-3.4 3.4s1.5 3.4 3.4 3.4 3.4-1.5 3.4-3.4-1.5-3.4-3.4-3.4zm0 4.8c-.8 0-1.5-.7-1.5-1.5s.7-1.5 1.5-1.5 1.5.7 1.5 1.5-.7 1.5-1.5 1.5zm24.4 22.9h4.3v1.9h-4.3z"/></svg>