<svg xmlns="http://www.w3.org/2000/svg"><symbol viewBox="0 0 448 512" id="arrow-left" xmlns="http://www.w3.org/2000/svg"><path d="M257.5 445.1l-22.2 22.2c-9.4 9.4-24.6 9.4-33.9 0L7 273c-9.4-9.4-9.4-24.6 0-33.9L201.4 44.7c9.4-9.4 24.6-9.4 33.9 0l22.2 22.2c9.5 9.5 9.3 25-.4 34.3L136.6 216H424c13.3 0 24 10.7 24 24v32c0 13.3-10.7 24-24 24H136.6l120.5 114.8c9.8 9.3 10 24.8.4 34.3z"/></symbol><symbol viewBox="0 0 448 512" id="arrow-right" xmlns="http://www.w3.org/2000/svg"><path d="M190.5 66.9l22.2-22.2c9.4-9.4 24.6-9.4 33.9 0L441 239c9.4 9.4 9.4 24.6 0 33.9L246.6 467.3c-9.4 9.4-24.6 9.4-33.9 0l-22.2-22.2c-9.5-9.5-9.3-25 .4-34.3L311.4 296H24c-13.3 0-24-10.7-24-24v-32c0-13.3 10.7-24 24-24h287.4L190.9 101.2c-9.8-9.3-10-24.8-.4-34.3z"/></symbol><symbol viewBox="0 0 64 64" id="assembly" xmlns="http://www.w3.org/2000/svg"><path d="M56 9c3.86 0 7-3.14 7-7V1H1v1c0 3.86 3.14 7 7 7h2v6c-4.962 0-9 4.038-9 9s4.038 9 9 9h1v-2.618l-1.478-.739A4.537 4.537 0 017 25.562 4.568 4.568 0 0111.562 21h6.875A4.568 4.568 0 0123 25.562a4.538 4.538 0 01-2.522 4.081L19 30.382V33h1c4.962 0 9-4.038 9-9s-4.038-9-9-9V9h21v16h-1c-4.962 0-9 4.038-9 9 0 4.624 3.507 8.441 8 8.941V47h16v-4.059c4.493-.5 8-4.317 8-8.941 0-4.962-4.038-9-9-9h-1V9zM3.101 3H60.9A5.01 5.01 0 0156 7H8a5.008 5.008 0 01-4.899-4zM27 24a7.009 7.009 0 01-4.082 6.362 6.526 6.526 0 002.082-4.8A6.57 6.57 0 0018.438 19h-6.875A6.57 6.57 0 005 25.562c0 1.859.769 3.58 2.082 4.8A7.009 7.009 0 013 24c0-3.86 3.14-7 7-7h10c3.86 0 7 3.14 7 7zm-9-9h-6V9h6zm37 25v-5H39v5a5.024 5.024 0 01-2-4c0-2.757 2.243-5 5-5h10c2.757 0 5 2.243 5 5a5.025 5.025 0 01-2 4zm-10-3h4v2h-4zm8 8H41v-8h2v4h8v-4h2zm8-11a6.997 6.997 0 01-3.154 5.843A7.023 7.023 0 0059 36c0-3.86-3.14-7-7-7H42c-3.86 0-7 3.14-7 7 0 1.376.413 2.713 1.154 3.843A6.997 6.997 0 0133 34c0-3.86 3.14-7 7-7h14c3.86 0 7 3.14 7 7zm-10-9h-8V9h8z"/><path d="M57 51H33V41H17v10h-2.153l-2-12H1v24h56c3.309 0 6-2.691 6-6s-2.691-6-6-6zm-46 6c0-2.206 1.794-4 4-4s4 1.794 4 4-1.794 4-4 4-4-1.794-4-4zm8.46-4h5.081a5.965 5.965 0 00-.001 8h-5.08c.954-1.063 1.54-2.462 1.54-4s-.586-2.937-1.54-4zM25 57c0-2.206 1.794-4 4-4s4 1.794 4 4-1.794 4-4 4-4-1.794-4-4zm8.46-4h5.081a5.965 5.965 0 00-.001 8h-5.08c.954-1.063 1.54-2.462 1.54-4s-.586-2.937-1.54-4zM39 57c0-2.206 1.794-4 4-4s4 1.794 4 4-1.794 4-4 4-4-1.794-4-4zm8.46-4h5.081a5.965 5.965 0 00-.001 8h-5.08c.954-1.063 1.54-2.462 1.54-4s-.586-2.937-1.54-4zM23 43h4v2h-4zm-4 0h2v4h8v-4h2v8H19zM3 41h8.153l1.667 10H3zm0 12h7.54C9.586 54.063 9 55.462 9 57s.586 2.937 1.54 4H3zm54 8c-2.206 0-4-1.794-4-4s1.794-4 4-4 4 1.794 4 4-1.794 4-4 4zM45 15h2v2h-2zm0 4h2v2h-2zm0-8h2v2h-2z"/><path d="M56 56h2v2h-2zm-14 0h2v2h-2zm-14 0h2v2h-2zm-14 0h2v2h-2z"/></symbol><symbol viewBox="0 0 496 496" id="car-parts" xmlns="http://www.w3.org/2000/svg"><path d="M80 65.472V0H16v65.472C6.712 68.784 0 77.584 0 88c0 6.168 2.408 11.744 6.24 16C2.408 108.256 0 113.832 0 120c0 10.416 6.712 19.216 16 22.528V345.48C6.712 348.784 0 357.584 0 368c0 6.168 2.408 11.744 6.24 16C2.408 388.256 0 393.832 0 400c0 10.416 6.712 19.216 16 22.528v18.768L34.232 496H61.76L80 441.296v-18.768c9.288-3.312 16-12.112 16-22.528 0-6.168-2.408-11.744-6.24-16 3.84-4.256 6.24-9.832 6.24-16 0-10.416-6.712-19.216-16-22.528V142.528c9.288-3.312 16-12.112 16-22.528 0-6.168-2.408-11.744-6.24-16C93.6 99.744 96 94.168 96 88c0-10.416-6.712-19.216-16-22.528zM32 16h32v48H32V16zm32 422.704L50.232 480h-4.464L32 438.704V424h32v14.704zM72 392c4.416 0 8 3.584 8 8s-3.584 8-8 8H24c-4.416 0-8-3.584-8-8s3.584-8 8-8h16v-16H24c-4.416 0-8-3.584-8-8s3.584-8 8-8h48c4.416 0 8 3.584 8 8s-3.584 8-8 8H56v16h16zm-40-48V144h32v200H32zm40-216H24c-4.416 0-8-3.592-8-8s3.584-8 8-8h48c4.416 0 8 3.592 8 8 0 4.408-3.584 8-8 8zm0-32H24c-4.416 0-8-3.592-8-8s3.584-8 8-8h48c4.416 0 8 3.592 8 8s-3.584 8-8 8zM352 0h-64v96h-16v48h16v145.472c-9.288 3.312-16 12.112-16 22.528s6.712 19.216 16 22.528v34.952c-9.288 3.312-16 12.112-16 22.528v32c0 10.416 6.712 19.216 16 22.528V472c0 13.232 10.768 24 24 24h16c13.232 0 24-10.768 24-24v-25.472c9.288-3.312 16-12.112 16-22.528v-32c0-10.416-6.712-19.216-16-22.528V334.52c9.288-3.312 16-12.112 16-22.528 0-10.416-6.712-19.216-16-22.528V144h16V96h-16V0zm-48 16h32v80h-32V16zm32 456c0 4.416-3.584 8-8 8h-16c-4.416 0-8-3.584-8-8v-24h32v24zm16-48c0 4.416-3.584 8-8 8h-48c-4.416 0-8-3.584-8-8v-32c0-4.416 3.584-8 8-8h48c4.416 0 8 3.584 8 8v32zm-48-56v-32h32v32h-32zm40-48h-48c-4.416 0-8-3.584-8-8s3.584-8 8-8h48c4.416 0 8 3.584 8 8s-3.584 8-8 8zm-40-32V144h32v144h-32zm48-160h-64v-16h64v16zm144-80h-16V24c0-13.232-10.768-24-24-24h-16c-13.232 0-24 10.768-24 24v24h-16v48h9.472c-.896 2.512-1.472 5.184-1.472 8v72h8v144h-8v72c0 2.816.576 5.488 1.472 8H400v48h16v24c0 13.232 10.768 24 24 24h16c13.232 0 24-10.768 24-24v-24h16v-48h-9.472c.896-2.512 1.472-5.184 1.472-8v-72h-8V176h8v-72c0-2.816-.576-5.488-1.472-8H496V48zm-32 424c0 4.416-3.584 8-8 8h-16c-4.416 0-8-3.584-8-8v-24h32v24zm16-40h-64v-16h64v16zm-56-272v-56c0-4.408 3.584-8 8-8h32c4.416 0 8 3.592 8 8v56h-48zm40 16v144h-32V176h32zm8 160v56c0 4.416-3.584 8-8 8h-32c-4.416 0-8-3.584-8-8v-56h48zm8-256h-64V64h24V48h-8V24c0-4.408 3.584-8 8-8h16c4.416 0 8 3.592 8 8v24h-8v16h24v16zM216 24c0-13.232-10.768-24-24-24h-16c-13.232 0-24 10.768-24 24v24h-16v48h9.472c-.896 2.512-1.472 5.184-1.472 8v72h8v144h-8v72c0 2.816.576 5.488 1.472 8H136v48h18.24l16 48h27.528l16-48H232v-48h-9.472c.896-2.512 1.472-5.184 1.472-8v-72h-8V176h8v-72c0-2.816-.576-5.488-1.472-8H232V48h-16V24zm-48 0c0-4.408 3.584-8 8-8h16c4.416 0 8 3.592 8 8v24h-32V24zm18.232 456h-4.472l-10.672-32h25.808l-10.664 32zM216 432h-64v-16h64v16zm-56-272v-56c0-4.408 3.584-8 8-8h32c4.416 0 8 3.592 8 8v56h-48zm40 16v144h-32V176h32zm8 160v56c0 4.416-3.584 8-8 8h-32c-4.416 0-8-3.584-8-8v-56h48zm8-256h-64V64h64v16z"/></symbol><symbol viewBox="0 0 40 40" id="check" xmlns="http://www.w3.org/2000/svg"><path d="M28.6 14.8c-.5-.5-1.4-.5-1.9 0l-7.5 7.5-3.3-3.3c-.3-.3-.6-.4-1-.4s-.7.1-1 .4c-.5.5-.5 1.4 0 1.9l4.2 4.2c.5.5 1.4.5 1.9 0l8.5-8.5c.6-.4.6-1.3.1-1.8z"/><path d="M38.6 18.6c-.7 0-1.4.6-1.4 1.4 0 9.5-7.8 17.3-17.3 17.3S2.7 29.5 2.7 20 10.5 2.7 20 2.7c4.6 0 9 1.8 12.3 5.1.3.3.6.4 1 .4s.7-.1 1-.4c.5-.5.5-1.4 0-1.9C30.4 2.1 25.4 0 20 0 9 0 0 9 0 20s9 20 20 20 20-9 20-20c0-.7-.6-1.4-1.4-1.4z"/></symbol><symbol viewBox="0 0 352 512" id="close" xmlns="http://www.w3.org/2000/svg"><path d="M242.72 256l100.07-100.07c12.28-12.28 12.28-32.19 0-44.48l-22.24-22.24c-12.28-12.28-32.19-12.28-44.48 0L176 189.28 75.93 89.21c-12.28-12.28-32.19-12.28-44.48 0L9.21 111.45c-12.28 12.28-12.28 32.19 0 44.48L109.28 256 9.21 356.07c-12.28 12.28-12.28 32.19 0 44.48l22.24 22.24c12.28 12.28 32.2 12.28 44.48 0L176 322.72l100.07 100.07c12.28 12.28 32.2 12.28 44.48 0l22.24-22.24c12.28-12.28 12.28-32.19 0-44.48L242.72 256z"/></symbol><symbol viewBox="0 0 512 512" id="envelope" xmlns="http://www.w3.org/2000/svg"><path d="M464 64H48C21.49 64 0 85.49 0 112v288c0 26.51 21.49 48 48 48h416c26.51 0 48-21.49 48-48V112c0-26.51-21.49-48-48-48zm0 48v40.805c-22.422 18.259-58.168 46.651-134.587 106.49-16.841 13.247-50.201 45.072-73.413 44.701-23.208.375-56.579-31.459-73.413-44.701C106.18 199.465 70.425 171.067 48 152.805V112h416zM48 400V214.398c22.914 18.251 55.409 43.862 104.938 82.646 21.857 17.205 60.134 55.186 103.062 54.955 42.717.231 80.509-37.199 103.053-54.947 49.528-38.783 82.032-64.401 104.947-82.653V400H48z"/></symbol><symbol viewBox="0 0 320 512" id="facebook" xmlns="http://www.w3.org/2000/svg"><path d="M279.14 288l14.22-92.66h-88.91v-60.13c0-25.35 12.42-50.06 52.24-50.06h40.42V6.26S260.43 0 225.36 0c-73.22 0-121.08 44.38-121.08 124.72v70.62H22.89V288h81.39v224h100.17V288z"/></symbol><symbol id="guarantee" viewBox="0 0 41 40" xml:space="preserve" xmlns="http://www.w3.org/2000/svg"><style>.ist0{fill:#fff}</style><path class="ist0" d="M40.6 17.7zm-.2 0c-.1-.6-.4-1.1-.8-1.4l-2.4-1.9.9-3c.2-.5.1-1.1-.2-1.6-.3-.5-.8-.8-1.3-1L33.5 8l-.4-3.1c-.1-.6-.4-1.1-.8-1.4-.5-.3-1-.5-1.6-.4l-3.1.6L25.9 1c-.5-.9-1.7-1.2-2.7-.8-.1 0-.1.1-.2.1l-2.7 1.9L17.7.4c-.4-.4-1-.5-1.5-.4-.6.1-1 .5-1.3 1l-1.6 2.7-3.1-.6c-.7-.1-1.2 0-1.7.4-.5.3-.8.8-.8 1.4L7.3 8l-3.4.8c-1 .5-1.5 1.5-1.2 2.5l.9 3-2.7 2.1c-.7.8-.8 2-.1 2.8l2 2.4-1.7 3c-.3 1 .1 2.2 1.1 2.6l2.9 1.3-.3 3.1c0 .6.1 1.1.5 1.6.4.6 1 .8 1.6.8l3.2.1 1 3c.2.5.6 1 1.1 1.2.5.2 1.1.2 1.6 0l2.9-1.2 2.4 2.5c.9.7 2.1.5 2.8-.2l2.2-2.3 2.9 1.2c.5.2 1.1.2 1.6 0s.9-.7 1.1-1.2l1-3 3.5-.1c1.1-.2 1.8-1.2 1.7-2.2l-.3-3.1 2.9-1.3c.5-.2.9-.7 1.1-1.2.2-.5.1-1.1-.2-1.6l-1.5-2.8 2-2.4c.4-.6.6-1.1.5-1.7zm-4.2 3.1c-.3.4-.4.9-.1 1.3l1.9 3.4-3.5 1.6c-.4.2-.7.7-.7 1.1l.3 3.9-3.9.1c-.5 0-.9.3-1.1.8l-1.3 3.7-3.6-1.5c-.4-.2-1-.1-1.3.3l-2.6 2.8-2.6-2.8c-.3-.3-.9-.5-1.3-.3l-3.6 1.5-1.2-3.7c-.2-.5-.6-.8-1.1-.8l-3.9-.1.4-3.8c0-.5-.2-.9-.7-1.1l-3.5-1.6 1.9-3.4c.2-.4.2-.9-.1-1.3L2.1 18l3-2.3c.4-.3.5-.8.4-1.2l-1.1-3.7 3.8-.9c.5-.1.8-.5.9-1l.5-3.8 3.8.7c.5.1 1-.1 1.2-.5l2-3.3 3.1 2c.4.3.9.3 1.3 0l3.2-2.2 2 3.3c.2.4.7.6 1.2.5l3.8-.7.5 3.8c.1.5.4.9.9 1l3.8.9-1.1 3.7c-.1.5 0 1 .4 1.2l3 2.3-2.5 3z"/><path class="ist0" d="M20.5 10.2c-5.4 0-9.8 4.4-9.8 9.8s4.4 9.8 9.8 9.8 9.8-4.4 9.8-9.8-4.4-9.8-9.8-9.8zm0 17.8c-4.4 0-8-3.6-8-8s3.6-8 8-8 8 3.6 8 8-3.6 8-8 8z"/><path class="ist0" d="M24.9 17.1c-.4-.4-1-.4-1.3 0L18.7 22l-1.5-1.5c-.2-.2-.4-.3-.7-.3-.2 0-.5.1-.7.3-.4.4-.4 1 0 1.3l2.1 2.1c.4.4 1 .4 1.3 0l5.5-5.5c.6-.4.6-1 .2-1.3z"/></symbol><symbol viewBox="0 0 512 512" id="information" xmlns="http://www.w3.org/2000/svg"><path d="M256 0C114.497 0 0 114.507 0 256c0 141.503 114.507 256 256 256 141.503 0 256-114.507 256-256C512 114.497 397.492 0 256 0zm0 472c-119.393 0-216-96.615-216-216 0-119.393 96.615-216 216-216 119.393 0 216 96.615 216 216 0 119.393-96.616 216-216 216z"/><path d="M256 214.33c-11.046 0-20 8.954-20 20v128.793c0 11.046 8.954 20 20 20s20-8.955 20-20.001V234.33c0-11.046-8.954-20-20-20z"/><circle cx="256" cy="162.84" r="27"/></symbol><symbol viewBox="0 0 448 512" id="instagram" xmlns="http://www.w3.org/2000/svg"><path d="M224.1 141c-63.6 0-114.9 51.3-114.9 114.9s51.3 114.9 114.9 114.9S339 319.5 339 255.9 287.7 141 224.1 141zm0 189.6c-41.1 0-74.7-33.5-74.7-74.7s33.5-74.7 74.7-74.7 74.7 33.5 74.7 74.7-33.6 74.7-74.7 74.7zm146.4-194.3c0 14.9-12 26.8-26.8 26.8-14.9 0-26.8-12-26.8-26.8s12-26.8 26.8-26.8 26.8 12 26.8 26.8zm76.1 27.2c-1.7-35.9-9.9-67.7-36.2-93.9-26.2-26.2-58-34.4-93.9-36.2-37-2.1-147.9-2.1-184.9 0-35.8 1.7-67.6 9.9-93.9 36.1s-34.4 58-36.2 93.9c-2.1 37-2.1 147.9 0 184.9 1.7 35.9 9.9 67.7 36.2 93.9s58 34.4 93.9 36.2c37 2.1 147.9 2.1 184.9 0 35.9-1.7 67.7-9.9 93.9-36.2 26.2-26.2 34.4-58 36.2-93.9 2.1-37 2.1-147.8 0-184.8zM398.8 388c-7.8 19.6-22.9 34.7-42.6 42.6-29.5 11.7-99.5 9-132.1 9s-102.7 2.6-132.1-9c-19.6-7.8-34.7-22.9-42.6-42.6-11.7-29.5-9-99.5-9-132.1s-2.6-102.7 9-132.1c7.8-19.6 22.9-34.7 42.6-42.6 29.5-11.7 99.5-9 132.1-9s102.7-2.6 132.1 9c19.6 7.8 34.7 22.9 42.6 42.6 11.7 29.5 9 99.5 9 132.1s2.7 102.7-9 132.1z"/></symbol><symbol viewBox="0 0 448 512" id="linkedin" xmlns="http://www.w3.org/2000/svg"><path d="M100.28 448H7.4V148.9h92.88zM53.79 108.1C24.09 108.1 0 83.5 0 53.8a53.79 53.79 0 01107.58 0c0 29.7-24.1 54.3-53.79 54.3zM447.9 448h-92.68V302.4c0-34.7-.7-79.2-48.29-79.2-48.29 0-55.69 37.7-55.69 76.7V448h-92.78V148.9h89.08v40.8h1.3c12.4-23.5 42.69-48.3 87.88-48.3 94 0 111.28 61.9 111.28 142.3V448z"/></symbol><symbol viewBox="0 0 41 40" id="purse" xmlns="http://www.w3.org/2000/svg"><path d="M.5 30.8c0 7 13.5 9.2 20 9.2s20-2.3 20-9.2c0-3-3-4.9-4.3-5.7-.2-.1-.4-.2-.5-.3l-.1-.1v-6.9c0-4.2-3.3-7.7-7.4-8h-.1l-2.7-4.2.1-.1c.4-.6.7-1.3.7-2 0-1.8-1.5-3.3-3.3-3.3-.8 0-1.6.3-2.2.8h-.2l-.2-.2c-.6-.5-1.4-.8-2.2-.8-1.8 0-3.3 1.5-3.3 3.3 0 .7.2 1.4.7 2l.1.1-2.7 4.2h-.1c-4.2.3-7.4 3.9-7.4 8v6.9l-.1.1c-.2.2-.3.3-.5.4-1.3.8-4.3 2.7-4.3 5.8zM22.9 1.9c.8 0 1.4.6 1.4 1.4s-.6 1.4-1.4 1.4c-.8 0-1.4-.6-1.4-1.4s.6-1.4 1.4-1.4zm-4.8 0c.8 0 1.4.6 1.4 1.4s-.6 1.4-1.4 1.4c-.8 0-1.4-.6-1.4-1.4s.6-1.4 1.4-1.4zm-.9 4.6h.2c1.1.3 2.2 0 3-.7l.2-.2.2.2c.8.7 1.9 1 3 .7h.2l2.1 3.2h-11l2.1-3.2zm-10 11.2c0-3.4 2.8-6.2 6.2-6.2h14.2c3.4 0 6.2 2.8 6.2 6.2v2.4h-.5c0-3.1-2.5-5.7-5.7-5.7H13.4c-3.1 0-5.7 2.5-5.7 5.7h-.5v-2.4zm-1.5 8.9c2.4-1.4 3.9-3.9 3.9-6.6 0-2.1 1.7-3.8 3.8-3.8h14.2c2.1 0 3.8 1.7 3.8 3.8 0 2.7 1.5 5.1 3.9 6.6 2.1 1.3 3.3 2.7 3.3 4.1 0 4.7-10.7 7.4-18.1 7.4S2.4 35.5 2.4 30.8c0-1.4 1.1-2.9 3.3-4.2z"/></symbol><symbol id="shield" viewBox="0 0 41 40" xml:space="preserve" xmlns="http://www.w3.org/2000/svg"><style>.nst0{fill:#fff}</style><path class="nst0" d="M18.9.6c-3.1 3.1-6.8 4.6-11.5 4.9-2.1.1-3.8 1.9-3.8 4v1.4c-.1 4.7-.2 10.6 1.8 15.9 1.1 2.9 2.7 5.4 4.8 7.5 2.4 2.4 5.6 4.3 9.5 5.6.1 0 .2.1.4.1.3.1.7.1 1 0 .1 0 .2-.1.4-.1 3.9-1.3 7-3.2 9.5-5.6 2.1-2.1 3.8-4.6 4.8-7.5 2-5.3 1.9-11.2 1.8-16V9.5c0-2.1-1.7-3.8-3.8-4-4.7-.3-8.4-1.8-11.5-4.9-.5-.4-1-.6-1.6-.6-.8 0-1.3.2-1.8.6zM20.8 2c1.7 1.7 3.6 2.9 5.7 3.8 2.1.9 4.4 1.4 7 1.5 1.1.1 2 1 2 2.1v1.3c.1 4.8.2 10.3-1.7 15.3-2.1 5.7-6.4 9.7-13.2 12H20c-6.8-2.4-11.1-6.3-13.2-12C5 21 5.1 15.6 5.2 10.8V9.5c0-1.1.9-2.1 2-2.1 2.6-.1 4.9-.6 7-1.5 2.1-.9 4-2.1 5.7-3.8.5-.3.7-.3.9-.1z"/><path class="nst0" d="M20.5 10.2c-5.4 0-9.8 4.4-9.8 9.8s4.4 9.8 9.8 9.8 9.8-4.4 9.8-9.8-4.4-9.8-9.8-9.8zm0 17.8c-4.4 0-8-3.6-8-8s3.6-8 8-8 8 3.6 8 8-3.6 8-8 8z"/><path class="nst0" d="M24.9 17c-.4-.4-1-.4-1.3 0l-4.9 4.9-1.5-1.5c-.2-.2-.4-.3-.7-.3s-.5.1-.7.3c-.4.4-.4 1 0 1.3l2.1 2.1c.4.4 1 .4 1.3 0l5.5-5.5c.6-.3.6-.9.2-1.3z"/></symbol><symbol viewBox="0 0 496 496" id="spring" xmlns="http://www.w3.org/2000/svg"><path d="M56 416c-13.23 0-24 10.77-24 24s10.77 24 24 24 24-10.77 24-24-10.77-24-24-24zm0 32c-4.406 0-8-3.586-8-8s3.594-8 8-8 8 3.586 8 8-3.594 8-8 8zm0 0"/><path d="M496 58.91C496 26.434 469.574 0 437.09 0c-15.738 0-30.531 6.129-41.656 17.258l-28.497 28.484C360.704 42.098 353.658 40 346.238 40c-14.168 0-27.168 7.145-34.781 19.098l-49.656 78.023L276.68 152 256 172.688l-5.375-5.375c-4.715-4.72-10.984-7.313-17.656-7.313-13.77 0-24.969 11.2-24.969 24.969 0 6.574 2.664 13.008 7.313 17.656l5.375 5.375L200 228.688l-5.375-5.375c-4.715-4.72-10.984-7.313-17.656-7.313-13.77 0-24.969 11.2-24.969 24.969 0 6.574 2.664 13.008 7.313 17.656l5.375 5.375L144 284.688l-5.375-5.375c-4.715-4.72-10.984-7.313-17.656-7.313C107.199 272 96 283.2 96 296.969c0 6.574 2.664 13.008 7.313 17.656l5.375 5.375L88 340.688l-5.375-5.375C77.91 330.592 71.641 328 64.969 328 51.199 328 40 339.2 40 352.969c0 6.574 2.664 13.008 7.313 17.656L52.688 376l-38.75 38.742C4.953 423.734 0 435.687 0 448.398 0 474.648 21.352 496 47.602 496c12.71 0 24.664-4.953 33.656-13.945L120 443.312l5.375 5.375c4.715 4.72 10.984 7.313 17.656 7.313 13.77 0 24.969-11.2 24.969-24.969 0-6.574-2.664-13.008-7.312-17.656L155.313 408 176 387.312l5.375 5.375c4.715 4.72 10.984 7.313 17.656 7.313 13.77 0 24.969-11.2 24.969-24.969 0-6.574-2.664-13.008-7.312-17.656L211.313 352 232 331.312l5.375 5.375c4.715 4.72 10.984 7.313 17.656 7.313 13.77 0 24.969-11.2 24.969-24.969 0-6.574-2.664-13.008-7.312-17.656L267.313 296 288 275.312l5.375 5.375c4.715 4.72 10.984 7.313 17.656 7.313 13.77 0 24.969-11.2 24.969-24.969 0-6.574-2.664-13.008-7.312-17.656L323.313 240 344 219.312l14.879 14.88 78.023-49.657C448.863 176.938 456 163.938 456 149.77c0-7.418-2.098-14.465-5.754-20.708l28.496-28.488C489.872 89.45 496 74.648 496 58.91zM69.937 470.742C63.977 476.711 56.04 480 47.602 480 30.176 480 16 465.824 16 448.398c0-8.437 3.29-16.375 9.258-22.343L64 387.313 108.688 432zM143.031 440a8.905 8.905 0 01-6.344-2.625l-78.062-78.062A9.064 9.064 0 0156 352.969c0-4.946 4.023-8.969 8.969-8.969 2.398 0 4.648.93 6.344 2.625l78.062 78.063A9.064 9.064 0 01152 431.03c0 4.946-4.023 8.969-8.969 8.969zm.969-43.312L99.312 352 120 331.313 164.688 376zM199.031 384a8.905 8.905 0 01-6.344-2.625l-78.062-78.062a9.064 9.064 0 01-2.625-6.344c0-4.946 4.023-8.969 8.969-8.969 2.398 0 4.648.93 6.344 2.625l78.062 78.063A9.064 9.064 0 01208 375.03c0 4.946-4.023 8.969-8.969 8.969zm.969-43.312L155.312 296 176 275.313 220.688 320zM255.031 328a8.905 8.905 0 01-6.344-2.625l-78.062-78.062a9.064 9.064 0 01-2.625-6.344c0-4.946 4.023-8.969 8.969-8.969 2.398 0 4.648.93 6.344 2.625l78.062 78.063A9.064 9.064 0 01264 319.03c0 4.946-4.023 8.969-8.969 8.969zm.969-43.312L211.312 240 232 219.313 276.688 264zM311.031 272a8.905 8.905 0 01-6.344-2.625l-78.062-78.062a9.064 9.064 0 01-2.625-6.344c0-4.946 4.023-8.969 8.969-8.969 2.398 0 4.648.93 6.344 2.625l78.062 78.063A9.064 9.064 0 01320 263.03c0 4.946-4.023 8.969-8.969 8.969zm.969-43.312L267.312 184 288 163.313 332.688 208zm-29.809-93.81l34.762-54.612 98.781 98.78-54.613 34.763zm147.243 35.243L325.879 66.566C330.625 59.984 338.063 56 346.239 56c6.738 0 13.074 2.625 17.831 7.39l68.54 68.532c4.765 4.766 7.39 11.101 7.39 17.848 0 8.175-3.984 15.613-10.566 20.351zM440 116.688L379.312 56l27.43-27.434C414.848 20.465 425.632 16 437.09 16 460.754 16 480 35.246 480 58.91c0 11.465-4.465 22.242-12.566 30.348zm0 0"/><path d="M440 32c-13.23 0-24 10.77-24 24s10.77 24 24 24 24-10.77 24-24-10.77-24-24-24zm0 32c-4.406 0-8-3.586-8-8s3.594-8 8-8 8 3.586 8 8-3.594 8-8 8zm0 0"/></symbol><symbol viewBox="0 0 41 40" id="target" xmlns="http://www.w3.org/2000/svg"><path d="M40.2 6.4c.3-.3.4-.8.3-1.2s-.5-.7-.9-.8L36.5 4 36 1c-.1-.4-.3-.8-.8-.9-.4-.1-.9 0-1.2.3l-5.7 5.7c-.2.2-.3.6-.3.9l.4 3.7-1.5 1.5-.2-.2c-3-2.6-6.7-3.8-10.3-3.8-4.1 0-8.2 1.6-11.2 4.6-3 3-4.6 7-4.6 11.2s1.6 8.2 4.6 11.2c3 3 7 4.6 11.2 4.6s8.2-1.6 11.2-4.6c5.8-5.8 6.2-15.3.8-21.6l-.2-.2 1.5-1.5 3.7.4c.3 0 .7-.1.9-.3l5.9-5.6zM26.3 34c-2.7 2.7-6.3 4.1-9.9 4.1S9.2 36.8 6.5 34C1 28.6 1 19.7 6.5 14.2c5.1-5.1 13.4-5.5 18.9-.8l.2.2-2.5 2.5-.2-.1c-4.2-3.3-10.1-3-13.9.8-2 2-3.1 4.6-3.1 7.4C5.9 27 7 29.6 9 31.6s4.6 3.1 7.4 3.1c2.8 0 5.4-1.1 7.4-3.1 3.8-3.8 4.1-9.7.8-13.9l-.1-.2L27 15l.2.2c4.5 5.4 4.2 13.7-.9 18.8zm-10.4-9.4c.4.4 1 .4 1.3 0l1.9-1.9.1.4c.4 1.1.1 2.4-.7 3.2-.6.6-1.3.9-2.2.9-.8 0-1.6-.3-2.2-.9-.6-.6-.9-1.3-.9-2.2 0-.8.3-1.6.9-2.2.8-.8 2.1-1.1 3.2-.7l.4.1-1.9 1.9c-.2.2-.3.4-.3.7s.2.5.4.7zm3.2-4.5l-.2-.1c-1.9-1.2-4.4-.9-6.1.7-.9.9-1.4 2.2-1.4 3.5 0 1.3.5 2.5 1.4 3.5.9.9 2.2 1.4 3.5 1.4s2.5-.5 3.5-1.4c1.6-1.6 1.9-4.1.7-6.1l-.1-.2 2.6-2.6.2.2c2.5 3.4 2.2 8.2-.8 11.2-1.6 1.6-3.8 2.5-6.1 2.5s-4.4-.9-6.1-2.5c-3.3-3.3-3.3-8.8 0-12.1 3-3 7.8-3.3 11.2-.8l.2.2-2.5 2.6zm14.2-9.5l-3.1-.4-.4-3.1 4.4-4.4.4 2.3c.1.5.4.9.9.9l2.3.3-4.5 4.4z"/></symbol><symbol id="tracking" viewBox="0 0 64 55" xml:space="preserve" xmlns="http://www.w3.org/2000/svg"><style>.qst0{fill:#fff}</style><path class="qst0" d="M63.8 31.1c0-.3-.1-.5-.3-.7l-13-15c-.6-.6-1.5-1-2.4-1H33.8v20h1.9v-18h12.5c.4 0 .8.2 1 .4l2.5 2.5h-6.1c-1.2 0-2.2 1-2.2 2.2v10.9c0 1.2 1 2.2 2.2 2.2h16.3v9.9c0 .8-.7 1.5-1.5 1.5h-.7v-.2c-.3-2.2-1.4-4.1-3.2-5.4-1.8-1.3-3.9-1.9-6.1-1.6-3.6.5-6.4 3.4-6.9 6.9v.2H32v-.2c-.6-4.5-4.8-7.6-9.3-6.9-3.6.5-6.4 3.4-6.9 6.9v.2H13c-.8 0-1.5-.7-1.5-1.5V33.8H9.7v10.6c0 1.9 1.5 3.4 3.4 3.4h2.7v.2c.3 1.8 1.1 3.4 2.4 4.7l.4.4H0V55h51.6c4 0 7.5-3 8.1-7v-.2h.7c1.9 0 3.4-1.5 3.4-3.4V31.1zm-39.9 22c-3.5 0-6.3-2.8-6.3-6.3s2.8-6.3 6.3-6.3 6.3 2.8 6.3 6.3-2.9 6.3-6.3 6.3zm5.3 0l.4-.4c1.3-1.3 2.1-2.9 2.4-4.7v-.2h11.5v.2c.3 1.8 1.1 3.4 2.4 4.7l.4.4H29.2zm22.4 0c-3.5 0-6.3-2.8-6.3-6.3s2.8-6.3 6.3-6.3 6.3 2.8 6.3 6.3-2.8 6.3-6.3 6.3zm10.3-20.5H45.3V21.2h8.3l8.3 10.3v1.1z"/><path class="qst0" d="M22.8 45.7H25v2.2h-2.2zm27.7 0h2.2v2.2h-2.2zM0 42.2h5.5v1.9H0zm2.4-4.8h3.1v1.9H2.4zm1.2-4.8h1.9v1.9H3.6zM15.4 0C6.9 0 0 6.9 0 15.4s6.9 15.4 15.4 15.4 15.4-6.9 15.4-15.4S23.9 0 15.4 0zm0 29C8 29 1.9 22.9 1.9 15.4 1.9 8 8 1.9 15.4 1.9 22.9 1.9 29 8 29 15.4S22.9 29 15.4 29z"/><path class="qst0" d="M14.8 25.8c.4.4 1 .4 1.3 0 .8-.8 7.5-7.7 7.5-12.7 0-4.5-3.7-8.2-8.2-8.2S7.2 8.5 7.2 13c0 5.1 6.8 12 7.6 12.8zm.6-19.1c3.5 0 6.3 2.8 6.3 6.3 0 3.7-5.1 9.4-6.1 10.5l-.2.2-.2-.2c-1-1.1-6.1-6.8-6.1-10.5.1-3.4 2.9-6.3 6.3-6.3z"/><path class="qst0" d="M15.4 9.7c-1.9 0-3.4 1.5-3.4 3.4s1.5 3.4 3.4 3.4 3.4-1.5 3.4-3.4-1.5-3.4-3.4-3.4zm0 4.8c-.8 0-1.5-.7-1.5-1.5s.7-1.5 1.5-1.5 1.5.7 1.5 1.5-.7 1.5-1.5 1.5zm24.4 22.9h4.3v1.9h-4.3z"/></symbol><symbol viewBox="0 0 512 512" id="viber" xmlns="http://www.w3.org/2000/svg"><path d="M444 49.9C431.3 38.2 379.9.9 265.3.4c0 0-135.1-8.1-200.9 52.3C27.8 89.3 14.9 143 13.5 209.5c-1.4 66.5-3.1 191.1 117 224.9h.1l-.1 51.6s-.8 20.9 13 25.1c16.6 5.2 26.4-10.7 42.3-27.8 8.7-9.4 20.7-23.2 29.8-33.7 82.2 6.9 145.3-8.9 152.5-11.2 16.6-5.4 110.5-17.4 125.7-142 15.8-128.6-7.6-209.8-49.8-246.5zM457.9 287c-12.9 104-89 110.6-103 115.1-6 1.9-61.5 15.7-131.2 11.2 0 0-52 62.7-68.2 79-5.3 5.3-11.1 4.8-11-5.7 0-6.9.4-85.7.4-85.7-.1 0-.1 0 0 0-101.8-28.2-95.8-134.3-94.7-189.8 1.1-55.5 11.6-101 42.6-131.6 55.7-50.5 170.4-43 170.4-43 96.9.4 143.3 29.6 154.1 39.4 35.7 30.6 53.9 103.8 40.6 211.1zm-139-80.8c.4 8.6-12.5 9.2-12.9.6-1.1-22-11.4-32.7-32.6-33.9-8.6-.5-7.8-13.4.7-12.9 27.9 1.5 43.4 17.5 44.8 46.2zm20.3 11.3c1-42.4-25.5-75.6-75.8-79.3-8.5-.6-7.6-13.5.9-12.9 58 4.2 88.9 44.1 87.8 92.5-.1 8.6-13.1 8.2-12.9-.3zm47 13.4c.1 8.6-12.9 8.7-12.9.1-.6-81.5-54.9-125.9-120.8-126.4-8.5-.1-8.5-12.9 0-12.9 73.7.5 133 51.4 133.7 139.2zM374.9 329v.2c-10.8 19-31 40-51.8 33.3l-.2-.3c-21.1-5.9-70.8-31.5-102.2-56.5-16.2-12.8-31-27.9-42.4-42.4-10.3-12.9-20.7-28.2-30.8-46.6-21.3-38.5-26-55.7-26-55.7-6.7-20.8 14.2-41 33.3-51.8h.2c9.2-4.8 18-3.2 23.9 3.9 0 0 12.4 14.8 17.7 22.1 5 6.8 11.7 17.7 15.2 23.8 6.1 10.9 2.3 22-3.7 26.6l-12 9.6c-6.1 4.9-5.3 14-5.3 14s17.8 67.3 84.3 84.3c0 0 9.1.8 14-5.3l9.6-12c4.6-6 15.7-9.8 26.6-3.7 14.7 8.3 33.4 21.2 45.8 32.9 7 5.7 8.6 14.4 3.8 23.6z"/></symbol><symbol viewBox="0 0 448 512" id="whatsapp" xmlns="http://www.w3.org/2000/svg"><path d="M380.9 97.1C339 55.1 283.2 32 223.9 32c-122.4 0-222 99.6-222 222 0 39.1 10.2 77.3 29.6 111L0 480l117.7-30.9c32.4 17.7 68.9 27 106.1 27h.1c122.3 0 224.1-99.6 224.1-222 0-59.3-25.2-115-67.1-157zm-157 341.6c-33.2 0-65.7-8.9-94-25.7l-6.7-4-69.8 18.3L72 359.2l-4.4-7c-18.5-29.4-28.2-63.3-28.2-98.2 0-101.7 82.8-184.5 184.6-184.5 49.3 0 95.6 19.2 130.4 54.1 34.8 34.9 56.2 81.2 56.1 130.5 0 101.8-84.9 184.6-186.6 184.6zm101.2-138.2c-5.5-2.8-32.8-16.2-37.9-18-5.1-1.9-8.8-2.8-12.5 2.8-3.7 5.6-14.3 18-17.6 21.8-3.2 3.7-6.5 4.2-12 1.4-32.6-16.3-54-29.1-75.5-66-5.7-9.8 5.7-9.1 16.3-30.3 1.8-3.7.9-6.9-.5-9.7-1.4-2.8-12.5-30.1-17.1-41.2-4.5-10.8-9.1-9.3-12.5-9.5-3.2-.2-6.9-.2-10.6-.2-3.7 0-9.7 1.4-14.8 6.9-5.1 5.6-19.4 19-19.4 46.3 0 27.3 19.9 53.7 22.6 57.4 2.8 3.7 39.1 59.7 94.8 83.8 35.2 15.2 49 16.5 66.6 13.9 10.7-1.6 32.8-13.4 37.4-26.4 4.6-13 4.6-24.1 3.2-26.4-1.3-2.5-5-3.9-10.5-6.6z"/></symbol><symbol viewBox="0 0 512 512" id="zoom" xmlns="http://www.w3.org/2000/svg"><path d="M505 442.7L405.3 343c-4.5-4.5-10.6-7-17-7H372c27.6-35.3 44-79.7 44-128C416 93.1 322.9 0 208 0S0 93.1 0 208s93.1 208 208 208c48.3 0 92.7-16.4 128-44v16.3c0 6.4 2.5 12.5 7 17l99.7 99.7c9.4 9.4 24.6 9.4 33.9 0l28.3-28.3c9.4-9.4 9.4-24.6.1-34zM208 336c-70.7 0-128-57.2-128-128 0-70.7 57.2-128 128-128 70.7 0 128 57.2 128 128 0 70.7-57.2 128-128 128z"/></symbol></svg>